<?xml version="1.0" standalone="no"?>
<!DOCTYPE svg PUBLIC "-//W3C//DTD SVG 20010904//EN"
 "http://www.w3.org/TR/2001/REC-SVG-20010904/DTD/svg10.dtd">
<svg version="1.0" xmlns="http://www.w3.org/2000/svg"
 viewBox="0 200 1500 600"
 preserveAspectRatio="xMidYMid meet">

<g transform="translate(0.000000,1024.000000) scale(0.100000,-0.100000)"
fill="#c0a6f1a8" stroke="none">
<path d="M2290 7409 c-169 -21 -383 -103 -538 -205 -248 -165 -442 -450 -492
-725 -17 -90 -14 -284 6 -371 17 -77 73 -216 117 -290 103 -176 303 -359 500
-459 176 -89 345 -129 548 -129 264 0 429 72 502 220 19 38 23 67 27 196 6
169 13 189 77 219 36 18 43 18 185 0 162 -20 215 -17 303 16 75 28 139 91 183
181 158 324 -86 876 -512 1153 -135 88 -322 161 -483 190 -94 16 -311 18 -423
4z m500 -92 c206 -55 388 -156 534 -296 279 -270 420 -619 346 -862 -30 -101
-82 -169 -155 -204 -73 -34 -132 -40 -248 -26 -198 25 -272 14 -322 -47 -34
-43 -43 -83 -44 -190 -1 -157 -27 -234 -101 -296 -93 -78 -186 -100 -400 -93
-140 3 -179 8 -260 31 -200 57 -378 162 -526 310 -132 132 -219 268 -263 409
-66 214 -43 454 63 665 158 315 470 545 831 613 149 28 413 21 545 -14z"/>
<path d="M2685 7078 c-58 -30 -85 -57 -111 -113 -44 -93 -27 -193 44 -268 54
-56 87 -71 162 -71 104 1 181 57 216 158 64 189 -141 383 -311 294z m165 -63
c64 -33 104 -113 91 -182 -10 -53 -34 -89 -81 -120 -71 -49 -185 -15 -228 67
-61 115 15 250 140 250 27 0 62 -7 78 -15z"/>
<path d="M2057 7046 c-109 -30 -180 -164 -147 -280 15 -56 72 -123 122 -146
58 -26 150 -26 204 0 80 39 134 127 134 217 0 41 -42 123 -81 160 -36 33 -112
63 -157 62 -15 0 -49 -6 -75 -13z m163 -73 c50 -31 74 -72 78 -137 3 -51 0
-66 -20 -95 -45 -66 -105 -91 -183 -77 -50 10 -112 68 -126 118 -23 86 31 187
109 204 15 3 32 7 37 9 18 7 79 -6 105 -22z"/>
<path d="M3154 6599 c-38 -11 -106 -76 -128 -123 -22 -47 -21 -150 3 -201 77
-166 322 -167 408 -2 20 40 27 124 14 173 -14 52 -74 122 -125 145 -44 20
-120 23 -172 8z m141 -68 c122 -56 140 -196 35 -284 -73 -62 -195 -39 -245 47
-40 66 -13 178 52 221 57 38 102 42 158 16z"/>
<path d="M1694 6529 c-92 -21 -164 -121 -164 -228 0 -198 227 -304 371 -174
58 52 79 100 79 174 0 113 -70 207 -172 228 -55 12 -57 12 -114 0z m145 -78
c12 -7 35 -30 51 -53 78 -107 -6 -268 -139 -268 -44 0 -105 33 -133 72 -32 45
-33 153 -2 194 57 77 143 98 223 55z"/>
<path d="M12325 7399 c-4 -6 -18 -59 -31 -118 -31 -145 -78 -253 -154 -356
-50 -67 -189 -197 -245 -228 -66 -38 -192 -85 -256 -97 -42 -8 -58 -16 -62
-30 -8 -31 14 -46 87 -59 39 -7 103 -27 142 -46 261 -120 432 -342 492 -637
11 -54 23 -102 27 -107 9 -15 55 -14 59 2 2 6 13 59 26 117 57 270 195 471
405 588 84 47 208 92 254 92 51 0 80 50 41 71 -8 4 -49 15 -90 24 -99 22 -244
92 -320 156 -161 134 -255 302 -295 529 -9 46 -19 87 -23 91 -15 14 -51 19
-57 8z m54 -301 c59 -158 155 -291 279 -389 75 -60 162 -110 231 -134 l34 -11
-104 -52 c-215 -106 -363 -277 -444 -512 -18 -51 -24 -61 -30 -45 -92 267
-269 470 -504 579 l-54 24 74 38 c100 50 205 130 289 222 54 58 84 104 130
195 33 66 60 126 60 133 0 31 17 10 39 -48z"/>
<path d="M6855 7136 c-27 -13 -60 -34 -72 -47 -31 -34 -73 -122 -73 -153 l0
-26 -335 0 c-302 0 -336 -2 -342 -16 -3 -9 -2 -24 4 -33 9 -14 47 -16 338 -16
l328 0 19 -56 c24 -72 74 -130 140 -163 42 -21 66 -26 127 -26 147 1 228 67
284 231 5 15 65 17 653 18 376 0 651 4 657 10 5 5 7 17 5 27 -3 18 -30 19
-657 24 l-654 5 -19 56 c-24 72 -74 130 -140 163 -72 36 -189 37 -263 2z m251
-78 c62 -42 94 -102 94 -175 0 -127 -82 -214 -204 -216 -129 -2 -218 87 -220
219 -1 51 4 68 29 109 41 66 97 94 186 95 59 0 72 -4 115 -32z"/>
<path d="M7806 6397 c-71 -41 -76 -61 -76 -320 0 -254 5 -278 64 -320 30 -21
40 -22 246 -22 247 0 263 4 299 78 19 40 21 60 21 263 0 208 -1 222 -22 264
-39 74 -60 80 -293 80 -189 0 -202 -2 -239 -23z m419 -56 c33 -5 43 -13 58
-41 15 -31 17 -60 15 -241 -3 -187 -5 -209 -22 -228 -18 -20 -28 -21 -232 -21
l-213 0 -21 27 c-21 26 -21 35 -18 244 4 286 -14 266 243 266 83 0 169 -2 190
-6z"/>
<path d="M8147 6186 c-7 -8 -42 -48 -77 -90 -36 -42 -67 -76 -70 -76 -4 0 -19
14 -35 30 -31 33 -69 39 -79 14 -6 -17 54 -98 80 -108 46 -18 63 -6 150 97 96
114 103 125 83 138 -20 12 -36 11 -52 -5z"/>
<path d="M13252 6412 c-7 -5 -21 -41 -32 -81 -26 -93 -61 -161 -104 -205 -37
-36 -132 -86 -164 -86 -11 0 -25 -7 -32 -15 -24 -28 -7 -48 65 -76 128 -48
211 -151 236 -294 14 -81 23 -95 55 -95 24 0 26 3 38 80 9 50 45 138 77 186
39 58 89 99 145 119 92 32 94 33 94 59 0 21 -6 26 -37 32 -149 27 -240 125
-282 302 -18 76 -31 92 -59 74z m92 -318 c15 -19 49 -49 76 -67 l48 -33 -32
-22 c-53 -36 -94 -84 -130 -152 l-35 -64 -12 29 c-28 65 -89 143 -138 176 -28
19 -51 37 -51 40 0 4 14 12 30 19 41 17 124 109 146 163 l18 44 26 -49 c15
-28 39 -65 54 -84z"/>
<path d="M6242 6161 c-8 -4 -12 -19 -10 -32 l3 -24 691 -3 c623 -2 692 -1 698
14 3 8 1 24 -4 35 -10 18 -29 19 -688 19 -372 0 -683 -4 -690 -9z"/>
<path d="M1671 4829 c-86 -16 -135 -73 -128 -148 8 -77 52 -114 182 -151 75
-21 115 -51 115 -86 0 -88 -174 -110 -223 -27 -14 24 -26 33 -45 33 -47 0 -53
-11 -33 -56 33 -72 113 -110 212 -101 100 9 157 57 166 141 11 92 -33 135
-177 175 -82 23 -112 46 -112 86 0 35 21 56 69 64 66 12 128 -18 145 -71 2 -6
16 -8 36 -3 39 8 41 28 9 75 -42 63 -117 87 -216 69z"/>
<path d="M11624 4829 c-53 -12 -111 -67 -120 -113 -16 -89 29 -139 165 -180
123 -37 162 -86 109 -137 -66 -61 -164 -41 -213 44 -9 15 -15 16 -42 6 -39
-13 -42 -33 -10 -80 33 -50 88 -73 172 -73 89 -1 140 24 174 84 18 33 22 52
18 88 -7 64 -52 104 -149 133 -131 39 -160 66 -132 120 16 33 32 39 94 39 44
0 51 -4 83 -40 19 -22 41 -40 50 -40 50 0 61 33 26 81 -40 57 -141 87 -225 68z"/>
<path d="M13385 4830 c-70 -10 -132 -60 -138 -111 -2 -18 4 -24 30 -30 30 -6
35 -3 53 26 21 34 44 45 95 45 72 -1 108 -92 53 -137 -7 -7 -36 -16 -63 -20
-44 -7 -50 -12 -53 -34 -3 -25 -1 -27 54 -31 69 -6 94 -30 94 -89 0 -47 -25
-75 -75 -85 -47 -8 -90 10 -115 51 -19 32 -22 33 -55 22 -19 -6 -35 -15 -35
-22 0 -19 49 -78 82 -100 46 -28 159 -28 206 0 88 53 102 174 27 233 l-27 22
31 35 c25 29 31 45 31 81 0 25 -7 58 -15 74 -26 50 -106 81 -180 70z"/>
<path d="M3420 4819 c-14 -6 -49 -26 -77 -46 -43 -29 -53 -42 -53 -65 0 -36
21 -37 75 -3 22 13 43 25 48 25 4 0 7 -97 7 -216 l0 -215 38 3 37 3 0 260 0
260 -25 2 c-14 1 -36 -2 -50 -8z"/>
<path d="M6361 4813 c-47 -23 -71 -67 -71 -130 0 -78 27 -104 148 -143 128
-42 142 -52 142 -95 0 -66 -84 -101 -167 -70 -33 13 -49 26 -57 46 -10 29 -34
37 -70 23 -36 -14 -1 -87 60 -125 51 -31 168 -34 232 -5 72 32 108 113 81 183
-19 50 -50 73 -139 99 -47 15 -98 31 -113 38 -48 19 -49 93 -2 114 58 26 136
7 168 -41 12 -19 22 -22 50 -19 35 4 35 4 25 35 -14 42 -46 76 -85 93 -45 19
-160 18 -202 -3z"/>
<path d="M8109 4807 c-37 -24 -74 -89 -65 -112 3 -9 18 -15 36 -15 22 0 33 6
39 23 23 60 100 80 145 38 61 -57 39 -105 -123 -266 -61 -60 -111 -117 -111
-127 0 -48 1 -48 191 -48 l179 0 0 35 0 35 -132 0 -133 0 104 104 c84 84 107
113 121 156 19 56 15 101 -13 144 -38 58 -173 77 -238 33z"/>
<path d="M2028 4748 c-3 -49 -5 -53 -30 -56 -24 -3 -28 -8 -28 -33 0 -26 3
-29 30 -29 l30 0 0 -130 c0 -75 5 -139 11 -154 16 -34 72 -60 115 -51 30 5 34
9 34 39 0 30 -3 33 -30 33 -17 0 -36 5 -42 11 -7 7 -14 60 -16 131 l-4 120 48
3 c45 3 49 5 52 31 3 26 2 27 -47 27 l-51 0 0 55 0 55 -34 0 -35 0 -3 -52z"/>
<path d="M6778 4748 c-3 -49 -5 -53 -30 -56 -24 -3 -28 -8 -28 -33 0 -26 3
-29 30 -29 l30 0 0 -130 c0 -73 5 -140 11 -153 17 -37 49 -51 117 -48 30 1 32
3 32 36 0 33 -1 34 -29 29 -49 -10 -61 21 -61 153 l0 113 45 0 c43 0 45 1 45
29 0 28 -3 30 -42 33 l-43 3 -3 53 c-3 52 -3 52 -37 52 -34 0 -34 0 -37 -52z"/>
<path d="M11990 4746 c0 -52 -1 -55 -27 -58 -22 -2 -28 -8 -28 -28 0 -20 6
-26 28 -28 l27 -3 0 -126 c0 -147 12 -186 65 -203 50 -17 99 -1 103 33 3 25 0
27 -31 27 -52 0 -59 16 -65 150 l-5 120 52 0 c50 0 51 1 51 29 0 28 -2 30 -47
33 -29 2 -48 8 -49 16 -1 6 -2 30 -3 52 -1 39 -2 40 -36 40 l-35 0 0 -54z"/>
<path d="M2329 4680 c-80 -43 -115 -190 -68 -288 43 -88 153 -126 243 -83 51
25 97 87 71 97 -20 8 -66 -4 -87 -23 -9 -8 -34 -17 -56 -20 -33 -4 -44 -1 -71
23 -20 19 -33 40 -34 59 l-2 30 125 2 c69 1 130 2 136 2 14 1 6 97 -11 131 -7
14 -27 38 -44 55 -28 26 -40 30 -99 32 -52 3 -75 -1 -103 -17z m144 -60 c25
-20 50 -73 40 -84 -4 -3 -48 -6 -100 -6 -102 0 -109 5 -79 59 28 50 95 65 139
31z"/>
<path d="M2674 4687 c-2 -7 -3 -127 -2 -267 l3 -255 35 0 35 0 3 87 3 88 50
-26 c58 -31 110 -29 159 6 103 73 100 295 -4 360 -50 30 -135 28 -175 -5 -29
-25 -30 -26 -33 -4 -2 16 -11 23 -36 25 -20 3 -35 -1 -38 -9z m215 -58 c82
-29 95 -200 19 -253 -45 -32 -118 -12 -142 39 -32 68 -9 182 43 210 32 17 40
18 80 4z"/>
<path d="M7094 4686 c-122 -54 -136 -294 -21 -365 91 -56 230 -24 260 60 10
30 -43 31 -84 3 -73 -50 -153 -19 -174 69 l-7 28 135 -4 c74 -2 140 -1 146 2
15 10 -1 101 -25 142 -32 54 -77 79 -143 79 -31 -1 -70 -7 -87 -14z m141 -68
c14 -13 29 -38 34 -55 l10 -33 -100 0 c-96 0 -99 1 -99 23 0 25 25 59 55 75
32 18 72 14 100 -10z"/>
<path d="M7443 4693 c-10 -3 -13 -66 -13 -263 l0 -258 23 -4 c51 -9 57 -1 57
72 0 95 5 105 40 79 70 -53 173 -24 220 61 34 62 35 175 2 238 -43 81 -141
108 -214 58 -34 -23 -35 -23 -44 -3 -9 20 -46 31 -71 20z m241 -90 c46 -46 43
-160 -4 -211 -63 -67 -171 -9 -170 92 1 47 17 107 33 123 17 17 74 31 99 25
10 -2 29 -15 42 -29z"/>
<path d="M12305 4686 c-68 -31 -105 -102 -105 -199 0 -119 60 -186 174 -194
61 -5 110 18 144 67 17 26 19 35 10 42 -22 14 -51 9 -74 -13 -12 -11 -40 -23
-63 -26 -36 -5 -44 -2 -76 30 -22 22 -35 45 -35 61 l0 26 133 -3 132 -2 0 50
c-1 59 -28 120 -67 149 -35 25 -131 32 -173 12z m110 -58 c22 -10 65 -72 65
-93 0 -3 -45 -5 -100 -5 -95 0 -100 1 -100 21 0 27 62 89 89 89 11 0 32 -5 46
-12z"/>
<path d="M12663 4692 l-33 -3 0 -259 0 -258 30 -7 c16 -4 34 -4 40 0 5 3 11
47 11 98 1 51 3 84 6 75 2 -9 24 -24 49 -34 77 -29 148 -3 196 74 19 31 23 50
23 122 0 97 -18 139 -75 177 -59 41 -152 25 -192 -32 -4 -5 -8 2 -8 17 0 32
-5 35 -47 30z m196 -71 c75 -40 65 -217 -13 -252 -40 -19 -94 -3 -117 34 -27
44 -24 164 6 197 35 39 76 46 124 21z"/>
<path d="M757 3936 c-80 -29 -119 -90 -125 -196 -7 -115 33 -188 120 -225 84
-35 183 -3 218 70 26 53 25 65 -3 65 -16 0 -31 -12 -48 -37 -16 -26 -37 -43
-65 -52 -37 -13 -44 -12 -80 5 -133 65 -97 324 46 324 42 0 94 -35 105 -71 6
-17 12 -19 33 -14 36 9 37 10 23 44 -18 41 -60 77 -106 90 -51 14 -71 13 -118
-3z"/>
<path d="M1062 3733 c3 -218 3 -218 26 -221 22 -3 22 -1 22 96 0 114 11 155
46 171 37 16 52 14 79 -14 24 -23 25 -30 25 -140 l0 -115 25 0 25 0 0 131 c0
72 -5 139 -10 150 -24 43 -108 63 -146 34 -37 -28 -44 -19 -44 55 0 68 -1 70
-25 70 l-25 0 2 -217z"/>
<path d="M3698 3943 c-2 -5 -2 -104 0 -221 l3 -213 22 3 c22 3 22 5 25 221 l2
217 -24 0 c-14 0 -26 -3 -28 -7z"/>
<path d="M5447 3937 c-137 -44 -184 -262 -82 -376 89 -98 260 -74 304 42 6 16
9 33 5 38 -9 15 -54 11 -54 -6 0 -19 -58 -75 -79 -76 -77 -6 -114 13 -149 82
-19 35 -22 55 -19 95 10 97 62 154 141 154 34 0 46 -7 80 -43 30 -31 47 -41
64 -39 18 3 22 8 16 25 -10 33 -40 72 -69 91 -34 22 -110 29 -158 13z"/>
<path d="M5744 3937 c-2 -7 -3 -105 -2 -217 l3 -205 25 0 c25 0 25 0 30 118 5
111 6 119 30 137 14 11 34 20 45 20 51 0 65 -36 65 -169 l0 -111 25 0 25 0 0
138 c0 134 -1 139 -24 162 -34 31 -81 35 -128 10 l-38 -20 0 75 c0 74 0 75
-25 75 -14 0 -28 -6 -31 -13z"/>
<path d="M8434 3936 c-10 -26 1 -51 22 -54 27 -4 45 18 37 46 -6 25 -50 31
-59 8z"/>
<path d="M10666 3943 c-119 -34 -182 -201 -125 -334 40 -93 166 -135 258 -87
66 34 86 67 86 141 l0 62 -75 0 c-74 0 -75 0 -78 -27 -3 -25 -1 -26 49 -26 28
-1 53 -3 55 -5 8 -8 -17 -61 -38 -84 -31 -34 -78 -39 -132 -14 -143 63 -97
321 58 321 32 0 45 -7 77 -41 32 -34 43 -40 65 -35 l26 7 -25 42 c-14 23 -38
50 -55 60 -31 18 -113 30 -146 20z"/>
<path d="M13863 3922 c-6 -4 -13 -25 -15 -47 l-3 -40 -57 -3 -58 -3 0 46 c0
43 -1 45 -30 45 -29 0 -30 -2 -30 -45 0 -41 -2 -45 -25 -45 -15 0 -25 -6 -25
-14 0 -16 30 -44 39 -36 3 3 8 -51 11 -118 5 -115 7 -125 29 -143 13 -10 32
-19 43 -19 57 0 76 53 21 58 -26 3 -31 8 -36 37 -3 19 -3 68 0 109 l6 76 31 1
c17 1 42 2 56 3 25 1 25 1 31 -114 3 -63 9 -123 13 -132 10 -21 69 -42 96 -33
31 10 23 50 -10 50 -38 0 -51 36 -48 135 l3 85 35 5 c26 4 36 10 38 27 3 19
-2 22 -35 25 -37 3 -38 4 -43 47 -5 45 -15 57 -37 43z"/>
<path d="M3188 3878 c-2 -36 -7 -44 -25 -46 -29 -4 -32 -42 -4 -42 26 0 32
-32 30 -147 -2 -94 -2 -97 25 -120 38 -33 91 -28 91 8 0 17 -6 24 -21 25 -40
2 -44 12 -44 119 l0 104 33 3 c24 2 33 8 35 26 3 19 -1 22 -32 22 -36 0 -36 0
-36 45 0 41 -2 45 -24 45 -22 0 -25 -5 -28 -42z"/>
<path d="M8256 3875 c-6 -40 -10 -45 -32 -45 -21 0 -25 -4 -22 -22 2 -13 11
-24 23 -27 30 -5 34 -18 30 -105 -5 -107 6 -150 45 -166 43 -18 80 -6 80 25 0
22 -3 25 -24 19 -36 -9 -46 20 -46 130 l0 96 35 0 c31 0 35 3 35 25 0 22 -4
25 -35 25 -35 0 -35 0 -35 45 0 41 -2 45 -24 45 -20 0 -25 -6 -30 -45z"/>
<path d="M12499 3910 c-1 -5 -3 -14 -4 -20 -1 -5 -3 -21 -4 -34 -1 -17 -8 -26
-23 -28 -15 -2 -23 -10 -23 -23 0 -14 6 -20 23 -19 12 0 22 -4 23 -10 0 -6 2
-60 4 -121 4 -104 5 -111 30 -132 44 -38 105 -26 105 20 0 15 -5 17 -29 12
-42 -9 -51 14 -51 129 l0 95 38 3 c29 2 38 8 40 25 3 19 -2 22 -35 25 -37 3
-38 4 -41 46 -3 37 -6 42 -28 42 -13 0 -25 -4 -25 -10z"/>
<path d="M13167 3913 c-4 -3 -7 -24 -7 -45 0 -31 -4 -38 -19 -38 -20 0 -35
-25 -25 -41 3 -5 14 -9 25 -9 17 0 19 -8 19 -92 0 -149 23 -195 96 -186 24 2
30 8 32 32 3 21 0 27 -10 24 -7 -3 -23 -2 -35 3 -22 8 -23 14 -23 114 l0 105
35 0 c31 0 35 3 35 25 0 22 -4 25 -35 25 -35 0 -35 0 -35 45 0 40 -2 45 -23
45 -13 0 -27 -3 -30 -7z"/>
<path d="M1460 3822 c-56 -28 -80 -73 -80 -151 0 -76 21 -120 72 -151 42 -25
88 -25 137 0 115 58 103 276 -17 310 -51 14 -72 13 -112 -8z m99 -47 c38 -19
55 -63 49 -127 -9 -85 -73 -123 -130 -78 -70 55 -57 184 22 213 24 9 29 8 59
-8z"/>
<path d="M1815 3833 c-11 -3 -31 -15 -43 -26 -40 -37 -55 -77 -54 -146 1 -55
5 -70 30 -100 17 -21 46 -42 70 -51 37 -13 47 -13 84 0 25 9 53 30 72 53 27
34 31 46 31 100 0 83 -24 130 -79 157 -41 19 -70 23 -111 13z m86 -60 c69 -41
64 -179 -8 -212 -35 -16 -48 -14 -81 14 -52 44 -55 145 -4 192 30 27 54 29 93
6z"/>
<path d="M2140 3831 c-35 -9 -55 -23 -69 -48 -29 -56 4 -104 87 -129 72 -22
86 -35 78 -68 -12 -47 -100 -45 -126 4 -6 12 -18 17 -31 15 -29 -6 -29 -6 -14
-41 41 -99 235 -69 235 37 0 33 -41 89 -65 89 -6 0 -35 7 -63 15 -44 13 -52
19 -52 40 0 48 66 60 106 20 31 -31 64 -33 64 -5 0 24 -31 57 -66 70 -28 11
-46 11 -84 1z"/>
<path d="M2450 3829 c-105 -43 -131 -208 -46 -286 41 -38 73 -48 121 -39 40 8
90 47 98 76 4 17 0 20 -24 20 -16 0 -29 -5 -29 -10 0 -6 -15 -18 -34 -27 -30
-14 -39 -14 -67 -3 -28 12 -59 58 -59 90 0 6 41 10 110 10 l110 0 0 35 c0 49
-23 100 -54 120 -32 21 -93 28 -126 14z m92 -59 c14 -11 28 -29 31 -40 6 -25
-15 -31 -98 -28 -54 3 -60 5 -57 23 4 27 48 65 76 65 13 0 35 -9 48 -20z"/>
<path d="M2924 3826 c-35 -15 -64 -51 -64 -78 0 -51 45 -87 126 -103 18 -3 40
-15 50 -27 18 -19 18 -20 -9 -44 -38 -33 -73 -31 -107 6 -34 36 -60 39 -60 8
1 -32 21 -55 63 -73 46 -19 80 -19 117 0 38 20 60 53 60 90 0 44 -28 69 -99
89 -57 16 -91 37 -91 56 0 15 43 40 68 40 12 0 34 -11 48 -25 28 -28 64 -33
64 -9 0 29 -21 56 -55 70 -42 17 -71 17 -111 0z"/>
<path d="M3880 3813 c-44 -37 -60 -74 -60 -141 0 -82 21 -127 70 -152 46 -24
78 -25 124 -6 31 13 76 59 76 77 0 17 -47 9 -64 -10 -23 -25 -65 -35 -98 -22
-23 8 -58 63 -58 90 0 6 41 11 113 13 l112 3 -3 39 c-7 82 -51 126 -133 132
-41 2 -54 -1 -79 -23z m130 -53 c46 -43 36 -55 -53 -58 -72 -3 -77 -2 -77 18
0 27 46 70 75 70 13 0 37 -13 55 -30z"/>
<path d="M4215 3825 c-40 -21 -55 -43 -55 -80 0 -47 24 -73 88 -91 55 -16 92
-38 92 -56 0 -4 -9 -17 -20 -28 -28 -28 -75 -26 -106 5 -31 31 -64 33 -64 5 0
-24 31 -57 66 -70 65 -25 143 1 169 55 30 64 -2 109 -98 135 -72 19 -92 44
-61 74 23 24 67 20 94 -9 25 -26 70 -34 70 -12 0 23 -32 59 -66 73 -43 18 -72
18 -109 -1z"/>
<path d="M6153 3829 c-18 -5 -45 -26 -60 -46 -36 -47 -44 -149 -16 -202 39
-74 121 -100 190 -61 50 28 73 66 80 134 6 63 -21 133 -62 160 -31 20 -92 28
-132 15z m87 -56 c35 -20 50 -52 50 -106 0 -85 -68 -140 -126 -102 -31 20 -44
53 -44 115 0 37 6 55 23 73 37 40 57 44 97 20z"/>
<path d="M6493 3829 c-93 -28 -126 -186 -58 -276 61 -79 193 -64 240 27 21 40
19 137 -3 179 -33 65 -104 93 -179 70z m82 -53 c59 -25 82 -102 50 -171 -30
-61 -91 -70 -141 -20 -20 20 -24 34 -24 82 0 73 24 110 78 122 1 1 18 -5 37
-13z"/>
<path d="M6823 3833 c-34 -7 -73 -59 -73 -98 0 -24 7 -39 26 -54 26 -21 30
-22 101 -41 52 -13 67 -45 33 -72 -31 -25 -66 -23 -96 7 -27 27 -74 34 -74 11
0 -26 41 -66 80 -77 54 -16 108 -4 142 33 59 63 20 136 -85 158 -69 14 -89 38
-57 70 27 27 66 25 96 -5 25 -25 64 -34 64 -15 0 28 -27 61 -62 74 -38 16 -53
17 -95 9z"/>
<path d="M7109 3816 c-45 -31 -69 -80 -69 -140 0 -124 90 -201 194 -166 36 12
76 52 76 76 0 19 -49 18 -56 0 -7 -19 -58 -39 -82 -32 -27 9 -59 46 -67 79
l-7 27 112 0 113 0 -7 48 c-7 56 -30 91 -77 114 -47 25 -88 22 -130 -6z m111
-43 c31 -21 40 -33 40 -55 0 -16 -10 -18 -73 -18 -41 0 -76 3 -80 6 -11 11 14
61 36 72 32 15 49 14 77 -5z"/>
<path d="M7615 3827 c-56 -26 -85 -82 -85 -166 0 -95 73 -167 158 -157 23 3
54 13 68 22 82 55 86 225 6 283 -39 27 -108 36 -147 18z m118 -66 c45 -44 39
-152 -10 -190 -37 -30 -70 -26 -104 10 -24 25 -29 40 -29 79 0 64 13 96 47
114 32 18 70 13 96 -13z"/>
<path d="M7983 3816 c-37 -31 -43 -32 -43 -6 0 15 -7 20 -25 20 l-25 0 0 -220
0 -220 25 0 c24 0 25 3 25 59 0 86 5 95 40 69 54 -40 138 -9 176 64 22 42 18
143 -7 187 -25 44 -45 59 -97 67 -32 5 -43 2 -69 -20z m98 -55 c29 -30 33 -46
30 -111 -4 -71 -56 -113 -111 -90 -74 31 -80 164 -9 214 34 23 57 20 90 -13z"/>
<path d="M8646 3830 c-139 -42 -123 -299 21 -326 91 -17 161 42 170 145 12
129 -78 214 -191 181z m113 -77 c20 -23 23 -34 19 -90 -5 -72 -23 -98 -75
-109 -27 -5 -37 -1 -63 24 -27 27 -30 37 -30 89 0 63 17 98 54 113 31 13 68 3
95 -27z"/>
<path d="M9003 3831 c-12 -6 -26 -18 -32 -28 -10 -16 -10 -16 -11 5 0 17 -6
22 -25 22 l-25 0 0 -160 0 -160 25 0 25 0 0 114 c0 135 12 160 75 160 57 0 65
-18 65 -156 l0 -118 25 0 25 0 0 138 c0 133 -1 139 -24 161 -27 25 -89 36
-123 22z"/>
<path d="M9285 3825 c-41 -22 -55 -43 -55 -85 0 -48 29 -74 99 -92 33 -9 59
-22 68 -35 13 -19 12 -24 -6 -42 -31 -31 -77 -27 -110 8 -19 21 -34 28 -48 25
-46 -12 14 -88 77 -99 79 -13 150 34 150 99 -1 46 -22 66 -96 90 -81 27 -100
48 -65 77 31 25 53 24 89 -6 49 -41 81 -31 56 17 -16 31 -66 58 -106 58 -13 0
-36 -7 -53 -15z"/>
<path d="M11040 3829 c-62 -26 -92 -79 -91 -162 1 -105 54 -162 148 -162 49 0
58 3 84 33 16 18 29 39 29 47 0 22 -43 18 -58 -5 -9 -15 -23 -20 -56 -20 -48
0 -71 18 -86 68 l-8 31 111 3 112 3 -2 33 c-3 77 -47 127 -119 136 -21 3 -50
1 -64 -5z m94 -61 c13 -13 27 -32 30 -44 6 -19 2 -21 -74 -21 -73 -1 -80 0
-80 18 0 28 44 69 74 69 14 0 36 -10 50 -22z"/>
<path d="M11383 3820 c-27 -16 -33 -17 -33 -5 0 10 -10 15 -30 15 l-30 0 0
-154 c0 -93 4 -157 10 -161 6 -3 19 -3 30 0 18 6 20 15 20 108 0 123 5 141 36
156 33 15 56 14 80 -3 16 -12 20 -31 24 -138 l5 -123 25 0 c25 0 25 0 28 110
2 61 -1 126 -7 145 -19 65 -95 89 -158 50z"/>
<path d="M11690 3822 c-93 -52 -109 -224 -25 -290 61 -48 158 -37 194 22 12
18 21 36 21 40 0 15 -46 4 -67 -16 -35 -32 -89 -30 -119 6 -13 15 -24 38 -24
52 l0 24 111 0 112 0 -7 41 c-13 84 -52 127 -123 135 -26 4 -49 -1 -73 -14z
m94 -43 c24 -12 52 -64 38 -73 -10 -6 -134 -6 -143 0 -16 9 13 63 39 73 36 13
37 13 66 0z"/>
<path d="M12074 3833 c-12 -2 -30 -13 -40 -24 -22 -24 -34 -24 -34 1 0 15 -7
20 -25 20 l-26 0 3 -157 3 -158 25 0 c25 0 25 1 27 95 4 132 6 138 58 161 36
16 45 25 45 44 0 14 -3 24 -7 24 -5 -1 -18 -4 -29 -6z"/>
<path d="M12224 3826 c-34 -15 -77 -63 -68 -77 10 -17 43 -9 68 16 29 29 46
31 87 9 24 -12 30 -21 27 -42 -3 -25 -7 -27 -58 -33 -107 -11 -154 -60 -130
-134 21 -64 91 -83 152 -41 35 23 36 23 52 5 9 -11 23 -19 31 -19 12 0 15 18
15 108 0 125 -11 174 -44 196 -36 23 -96 28 -132 12z m116 -195 c0 -31 -47
-81 -76 -81 -31 0 -54 21 -54 49 0 42 25 57 98 60 29 1 32 -2 32 -28z"/>
<path d="M12745 3831 c-106 -47 -128 -212 -39 -295 36 -32 84 -42 134 -27 37
11 80 54 80 80 0 16 -50 13 -56 -3 -8 -21 -60 -39 -89 -32 -28 7 -65 59 -65
91 0 19 6 20 110 17 l110 -3 0 32 c0 41 -33 110 -60 127 -27 16 -100 24 -125
13z m84 -56 c28 -14 41 -33 41 -61 0 -11 -18 -14 -81 -14 -79 0 -80 0 -73 23
9 29 24 47 49 57 28 12 33 12 64 -5z"/>
<path d="M13413 3833 c-29 -6 -73 -51 -73 -74 0 -28 38 -24 66 6 13 14 32 25
42 25 30 0 74 -39 70 -64 -3 -18 -12 -22 -58 -27 -105 -11 -149 -51 -136 -123
14 -72 114 -99 171 -46 l23 22 7 -21 c4 -14 15 -21 31 -21 l24 0 0 120 c0 125
-8 160 -44 184 -24 15 -90 26 -123 19z m107 -199 c0 -30 -50 -84 -78 -84 -11
0 -30 8 -42 18 -18 14 -21 25 -16 45 7 28 43 44 104 46 28 1 32 -2 32 -25z"/>
<path d="M14110 3832 c-68 -33 -100 -87 -100 -170 0 -88 51 -150 131 -159 62
-6 108 20 137 77 41 82 23 187 -39 233 -28 20 -104 32 -129 19z m101 -71 c26
-26 29 -36 29 -91 0 -55 -3 -65 -29 -91 -16 -16 -37 -29 -46 -29 -64 0 -116
84 -96 157 22 81 89 106 142 54z"/>
<path d="M14435 3829 c-56 -16 -100 -109 -89 -189 12 -87 86 -148 167 -137 83
11 138 110 117 210 -20 99 -98 145 -195 116z m103 -57 c32 -25 50 -117 31
-156 -68 -140 -215 -25 -154 119 21 53 80 70 123 37z"/>
<path d="M3356 3822 c-3 -6 5 -34 18 -63 12 -30 38 -97 57 -151 39 -113 36
-149 -16 -158 -24 -4 -31 -11 -33 -33 -2 -18 2 -29 13 -33 21 -9 74 15 90 40
18 29 145 370 145 391 0 12 -7 15 -26 13 -24 -3 -29 -13 -63 -116 -20 -62 -41
-113 -46 -113 -5 0 -25 51 -45 113 -33 104 -38 113 -62 116 -14 2 -29 -1 -32
-6z"/>
<path d="M8432 3673 l3 -158 25 0 25 0 3 158 3 157 -31 0 -31 0 3 -157z"/>
</g>
</svg>
