<?xml version="1.0" standalone="no"?>
<!DOCTYPE svg PUBLIC "-//W3C//DTD SVG 20010904//EN"
 "http://www.w3.org/TR/2001/REC-SVG-20010904/DTD/svg10.dtd">
<svg version="1.0" xmlns="http://www.w3.org/2000/svg"
 width="890.000000pt" height="300.000000pt" viewBox="0 0 890.000000 300.000000"
 preserveAspectRatio="xMidYMid meet">

<g transform="translate(0.000000,300.000000) scale(0.100000,-0.100000)"
fill="#d9c6fbff" stroke="none">
<path d="M2799 2915 c-44 -25 -157 -80 -194 -95 -11 -4 -32 -12 -46 -18 -36
-14 -140 -38 -219 -51 -203 -32 -262 -33 -985 -11 -682 20 -820 8 -1025 -88
-72 -33 -204 -166 -246 -247 -53 -100 -67 -161 -62 -266 5 -116 32 -189 93
-257 93 -103 284 -157 349 -97 34 31 33 52 -4 97 -58 70 -66 142 -25 225 51
102 159 152 415 196 36 6 101 11 145 11 l80 1 -1 -55 c0 -30 -4 -356 -8 -725
-4 -368 -11 -742 -17 -830 -15 -231 -41 -307 -168 -490 -64 -92 -74 -130 -45
-159 23 -23 43 -21 234 33 239 67 318 87 435 106 55 9 108 24 118 32 26 24 21
61 -24 153 -80 166 -77 130 -78 1060 -1 471 3 831 8 839 7 11 54 15 233 17
122 2 257 8 298 14 117 18 297 60 348 82 178 76 263 129 357 223 112 112 170
270 113 309 -29 20 -27 21 -79 -9z"/>
<path d="M7695 2448 c-77 -15 -213 -57 -249 -78 -53 -29 -168 -125 -207 -172
-84 -101 -157 -246 -195 -387 -39 -146 -58 -501 -34 -640 5 -31 14 -87 21
-126 40 -248 146 -479 288 -628 70 -74 193 -154 301 -197 78 -31 95 -34 221
-38 121 -4 145 -2 210 19 228 70 412 236 522 470 72 151 75 160 107 290 73
297 63 601 -31 899 -52 164 -194 358 -329 450 -110 75 -170 100 -333 139 -55
13 -220 12 -292 -1z m258 -263 c60 -29 132 -90 135 -115 2 -14 16 -37 32 -51
35 -32 92 -202 111 -334 17 -111 17 -528 0 -636 -32 -202 -77 -348 -117 -373
-14 -10 -24 -26 -24 -40 0 -26 -67 -93 -118 -120 -47 -24 -126 -20 -187 9
-106 52 -162 143 -216 355 -22 85 -29 212 -29 506 0 402 10 471 89 634 41 85
83 131 144 159 51 24 136 27 180 6z"/>
<path d="M3124 2419 c-17 -19 -19 -42 -22 -266 -3 -269 1 -293 54 -293 26 0
39 11 119 104 96 112 214 176 326 176 l57 0 7 -122 c4 -68 5 -386 3 -708 -4
-660 1 -620 -85 -729 -81 -104 -93 -123 -93 -150 0 -15 5 -32 12 -39 9 -9 105
-12 370 -12 345 0 359 1 378 20 11 11 20 24 20 29 0 27 -26 71 -71 118 -28 29
-62 79 -77 110 l-27 58 -3 699 c-2 550 0 701 10 713 18 22 132 12 193 -17 58
-28 155 -116 192 -176 35 -54 60 -65 85 -34 16 20 18 45 18 257 l0 234 -25 24
-24 25 -699 0 c-698 0 -699 0 -718 -21z"/>
<path d="M4640 2414 c-6 -14 -10 -132 -10 -263 0 -218 2 -239 18 -254 32 -29
50 -20 92 47 51 80 106 131 179 164 46 21 71 26 146 26 l90 1 0 -715 0 -715
-27 -56 c-15 -32 -50 -83 -78 -115 -53 -64 -68 -101 -50 -133 10 -21 18 -21
366 -21 226 0 362 4 375 10 34 19 24 61 -31 129 -103 129 -95 61 -98 751 -2
333 -1 665 3 738 l7 132 48 0 c86 0 148 -28 225 -102 39 -37 91 -92 115 -122
35 -43 51 -56 72 -56 15 0 29 4 32 9 4 5 6 127 6 271 1 233 -1 265 -16 281
-16 18 -47 19 -736 19 l-718 0 -10 -26z"/>
<path d="M6220 2426 c-17 -21 -5 -64 33 -122 45 -68 77 -139 93 -204 17 -69
20 -1338 4 -1438 -11 -68 -20 -86 -88 -174 -35 -45 -43 -63 -40 -89 3 -30 7
-34 43 -41 56 -12 431 -24 550 -18 l100 5 3 35 c2 25 -4 47 -20 70 -46 69 -71
135 -80 217 -5 45 -8 389 -6 765 3 621 5 687 21 728 24 63 36 86 85 160 27 41
41 74 40 90 l-3 25 -361 3 c-308 2 -363 0 -374 -12z"/>
<path d="M2670 2387 c-14 -8 -41 -23 -60 -34 -19 -11 -71 -32 -114 -47 -44
-15 -87 -31 -97 -37 -10 -5 -78 -25 -151 -44 -73 -20 -137 -40 -143 -46 -6 -6
-9 -71 -7 -168 2 -87 -1 -175 -6 -197 -6 -21 -16 -77 -22 -124 -12 -91 -26
-166 -41 -215 -5 -16 -18 -75 -29 -130 -84 -403 -195 -784 -286 -983 -24 -51
-29 -102 -13 -113 21 -13 103 -11 194 6 341 61 354 68 303 167 -36 68 -30 198
19 408 8 36 20 71 25 78 13 15 343 17 382 2 28 -10 39 -42 58 -160 23 -140 13
-197 -42 -272 -43 -56 -52 -104 -23 -115 29 -11 704 15 719 28 30 25 17 74
-39 136 -87 97 -103 134 -162 367 -29 117 -56 226 -59 242 -3 16 -19 85 -35
154 -16 69 -41 175 -56 235 -14 61 -30 124 -35 140 -6 17 -22 77 -36 135 -139
576 -147 600 -198 600 -12 0 -32 -6 -46 -13z m-170 -712 c12 -60 24 -119 27
-130 13 -52 44 -226 50 -277 l6 -58 -36 -15 c-25 -10 -72 -15 -153 -15 l-116
0 6 33 c4 17 16 79 26 137 18 100 44 239 91 485 11 61 23 117 26 125 6 17 39
-114 73 -285z"/>
</g>
</svg>
